bicep_curl
version=1
nRows=29
nColumns=17
inDegrees=yes

# SIMM Motion File Header:
name bicep_curl
datacolumns 17
datarows 29
otherdata 1
range 0.28792478 0.3093369
endheader
time	/jointset/r_shoulder/r_shoulder_elev/value	/jointset/r_shoulder/r_shoulder_elev/speed	/jointset/r_elbow/r_elbow_flex/value	/jointset/r_elbow/r_elbow_flex/speed	/forceset/TRIlong/activation	/forceset/TRIlong/fiber_length	/forceset/TRIlat/activation	/forceset/TRIlat/fiber_length	/forceset/TRImed/activation	/forceset/TRImed/fiber_length	/forceset/BIClong/activation	/forceset/BIClong/fiber_length	/forceset/BICshort/activation	/forceset/BICshort/fiber_length	/forceset/BRA/activation	/forceset/BRA/fiber_length
0.28792478	-0.160253734313997	-0.689028391236929	74.6436694271396	258.993910860216	0.0201372210670626	0.164441554405012	0.127452437086343	0.0979569273128746	0.126273917869974	0.093013899510498	0.659381818057966	0.108951463601331	0.17450130871169	0.109728795675259	0.0248069643246788	0.074522244428422
0.28869912	-0.160786109027694	-0.687482211539337	74.8442201071587	258.998900521358	0.0201358187814822	0.164508086361731	0.12782248904113	0.0980225211429396	0.126648247123398	0.093079455220976	0.660188399533395	0.108789821084361	0.176656763309378	0.10955258544323	0.0247779212084296	0.0744520935112684
0.28947347	-0.161319066986769	-0.689212627392813	75.0447823417045	259.015509649069	0.0201344330651644	0.164573175330404	0.128153101593358	0.0980883410990231	0.126982584418144	0.0931452262610779	0.660953544288326	0.108628145604247	0.178596923450829	0.109376687546059	0.0247491835724041	0.0743818042460099
0.29	-0.161682766825148	-0.692344208879028	75.1811640026406	259.033216738008	0.020133504987287	0.164617618020922	0.128357565352479	0.0981332153768862	0.127189296559926	0.0931900553412741	0.661451260190021	0.108518203188474	0.179804950813436	0.109257346794705	0.0247298214922791	0.0743339201597962
0.29000866	-0.161688383136528	-0.692398355328611	75.1834085308303	259.033560360651	0.0201334846766345	0.164618350768207	0.128360793922792	0.0981339587961375	0.127192569183094	0.0931907980781011	0.661459298176405	0.108516391576086	0.179824123075653	0.109255389102266	0.0247295025923712	0.0743331319311289
0.29001733	-0.161694693164722	-0.692464245122007	75.1856553997725	259.033898721629	0.0201334746600907	0.164619081637861	0.12837916867968	0.0981346990942655	0.127207054833503	0.0931915385079375	0.661508654415601	0.10851457932374	0.179760533257864	0.109253417617107	0.0247287594692923	0.0743323410218508
0.29006065	-0.161724424124969	-0.692798866791117	75.1968752383392	259.035605257443	0.020133393382623	0.16462273583781	0.128436344488193	0.0981383776028977	0.127253762837443	0.0931952162242801	0.661661116506257	0.108505531027635	0.179630790807335	0.10924362368539	0.0247260102236961	0.0743283977084301
0.29027725	-0.161875037693615	-0.694595029720501	75.252983301424	259.044541105077	0.0201330075822834	0.164641016503226	0.128716866881121	0.0981566920057813	0.127482912772561	0.09321355906057	0.662416605319921	0.108460239590958	0.178984102785895	0.109194864621832	0.0247122854009013	0.0743086834043627
0.29136026	-0.16263235334945	-0.70404797779534	75.5335562511595	259.090365155804	0.0201311142482982	0.164732410647419	0.129993123969121	0.0982467004297022	0.128525524306054	0.0933042038632072	0.66602625251563	0.108232753207562	0.175802552415112	0.108955971002085	0.0246442597294704	0.0742099668957144
0.29244327	-0.163398866820136	-0.711084377248452	75.8141748055019	259.12801633405	0.0201292511957525	0.164823878915868	0.131082419917888	0.0983362826073766	0.129415385128462	0.0933946782305577	0.66937262661222	0.10800382622746	0.172705290518469	0.108724074562637	0.0245772341285212	0.0741109848361868
0.29416423	-0.164628276117877	-0.716696477303812	76.2601614267495	259.169687490799	0.0201263350552838	0.164969074369325	0.132496274300658	0.098479776458773	0.13057008977478	0.0935394487849714	0.674199063137299	0.107637886281907	0.167949611098201	0.108366568592141	0.0244727412010464	0.073953133635338
0.29514572	-0.165331791013927	-0.717602339384671	76.5145426071166	259.186626184573	0.0201246971713478	0.165052504834453	0.133158168592372	0.0985623453254897	0.131110453069367	0.0936225964112939	0.676706008537399	0.107428325121798	0.165324920896209	0.108167278774448	0.0244142277769742	0.0738627800649756
0.29637759	-0.166215691846148	-0.717682386157994	76.8338388872936	259.205916076528	0.0201226804321022	0.165155478872942	0.133866695154836	0.0986666402234174	0.131688629962251	0.0937274712175143	0.679623339919481	0.107164685254892	0.162116902525143	0.107920679910565	0.0243418863460294	0.0737490523002197
0.29716778	-0.166782623681428	-0.717534974202403	77.0386653930002	259.217000342917	0.0201214017999896	0.165223586005821	0.134259357471344	0.0987338834280552	0.132008902860555	0.0937950079844353	0.681369855114316	0.106995316736781	0.160108047998222	0.107764138088881	0.0242961077432279	0.0736759076817186
0.29795797	-0.167349728451936	-0.717302542753254	77.2435000063837	259.228892648318	0.0201201351408121	0.165290102351349	0.134609892803329	0.0988013581226705	0.132294706847638	0.0938627277402869	0.683025228149413	0.10682578846733	0.158136326210631	0.107608610040446	0.0242508259866568	0.073602617408762
0.29917478	-0.168222232497832	-0.717337494484963	77.5589431521427	259.24799961502	0.0201182179032054	0.165393486439326	0.135077715604568	0.0989056660941757	0.132675930740553	0.0939673218730883	0.685407622408105	0.106564538154942	0.155170602378264	0.107370699294513	0.0241820398600566	0.0734894669307895
0.3	-0.16881407687709	-0.717491697691659	77.7728869440354	259.261866736082	0.0201169240876362	0.165462974471125	0.135351673123281	0.0989766516184225	0.132899032819953	0.0940384490283105	0.686915776278965	0.106387268384423	0.153206510404935	0.107210188838196	0.0241360296156563	0.0734125313835741
0.30004127	-0.168844175101455	-0.717462867932987	77.7835857790255	259.262509213367	0.0201168660557967	0.16546648147475	0.135364540384724	0.0989802047074415	0.13290950856886	0.0940420108584941	0.686989021849014	0.106378403086213	0.153109276250713	0.107202177022199	0.0241337424703718	0.073408678122988
0.30008254	-0.16887339686974	-0.717485082414707	77.7942863680419	259.263217551147	0.0201167960940895	0.165469989581595	0.135403651697878	0.0989837509943036	0.132940217041461	0.0940455677906131	0.687147729247569	0.106369531405223	0.153023481567467	0.107194167751299	0.0241314537515488	0.0734048276525582
0.3002889	-0.169021652604154	-0.717598948132346	77.8477890730333	259.266758751121	0.02011648096834	0.165487515023958	0.135536830735184	0.0990014704148185	0.133045617140742	0.0940633317514542	0.687741280704662	0.106325165953911	0.152569935259516	0.107154109761528	0.0241200373872554	0.0733855525380441
0.30132071	-0.169761918113572	-0.717591364578025	78.1153112080441	259.282200671982	0.0201148978675708	0.165575028285145	0.13614669785259	0.0990896499861817	0.133528105338141	0.0941518381369021	0.690587303021294	0.106102924466229	0.15033382555842	0.106954123495748	0.0240634528614828	0.0732890670027278
0.30278498	-0.170811268811517	-0.714976794349523	78.4949792980845	259.295850215161	0.0201126915408266	0.165698355195895	0.13687124129278	0.0992148169884781	0.134100924622413	0.0942775223602235	0.694299848409474	0.105786587668078	0.147248477216192	0.106670817069815	0.0239844920530743	0.0731517113211322
0.30355935	-0.171363396864419	-0.712692808212391	78.6957712695189	259.299775324761	0.020111539303641	0.165765002633759	0.137197385194237	0.0992812365931442	0.134358582968889	0.0943441731878313	0.696120216316701	0.105618983138363	0.145657207398147	0.106521095169427	0.0239433626142254	0.0730788706332663
0.30433371	-0.171914609515107	-0.710421310547256	78.8965633843856	259.304333376389	0.0201104010647832	0.165830388730785	0.13748944865707	0.0993478276106269	0.134589200966088	0.0944109591564521	0.697848536028441	0.105451222834822	0.144093098241249	0.106371370848183	0.0239026722080518	0.0730058964179029
0.30556869	-0.172789557724774	-0.70742838510231	79.2168064529101	259.313300732735	0.0201086076207451	0.1659355605917	0.137893490984092	0.0994543582720383	0.134908002598822	0.0945177305311876	0.700426684554691	0.105183455865259	0.141653243248212	0.106132489790722	0.0238386402280112	0.072889237501435
0.30651074	-0.17345514909685	-0.705612882249808	79.4610955979068	259.322778809105	0.0201072623292019	0.166014849205017	0.138157375660756	0.0995358646824244	0.135116040503693	0.0945993645889585	0.702255843992543	0.104979095107074	0.139836052352814	0.105950106956799	0.0237905124439921	0.0728000198360054
0.3074528	-0.174119194913657	-0.704977450256609	79.7053995135189	259.335118723119	0.0201059290714539	0.166095605459468	0.138388236356122	0.0996175562136838	0.135297904021868	0.0946811436567671	0.703974450037927	0.10477467452209	0.138055727768445	0.105767521801758	0.0237429917040153	0.0727106026012691
0.30839485	-0.174783135070717	-0.705291630807589	79.9497114310458	259.351375486952	0.0201046155934205	0.166174741429493	0.138590214657173	0.0996994163605591	0.135456894881164	0.0947630530150168	0.70558945943647	0.104570249296824	0.136311391400231	0.105584686051512	0.0236960740807897	0.072620989237824
0.3093369	-0.175448076984918	-0.706988458384992	80.1940426133129	259.370470491109	0.020103321852988	0.166255819353792	0.138766964662406	0.0997814250785944	0.135595914701215	0.0948450815431748	0.7071074509739	0.104365826148298	0.134602020607204	0.10540156882182	0.023649758076742	0.0725311814608943
